HIERARCHY
ROOT Hips
{
  OFFSET -43.3411 73.6987 0
  CHANNELS 6 Xposition Yposition Zposition Zrotation Xrotation Yrotation
  JOINT Bip01_Pelvis
  {
    OFFSET 0 0 0
    CHANNELS 6 Xposition Yposition Zposition Zrotation Xrotation Yrotation
    JOINT BN_Tail_01
    {
      OFFSET -18.6385 -9.591 -2.032e-005
      CHANNELS 6 Xposition Yposition Zposition Zrotation Xrotation Yrotation
      JOINT BN_Tail_02
      {
        OFFSET 20.9743 0 0
        CHANNELS 6 Xposition Yposition Zposition Zrotation Xrotation Yrotation
        JOINT BN_Tail_03
        {
          OFFSET 20.3015 0 0
          CHANNELS 6 Xposition Yposition Zposition Zrotation Xrotation Yrotation
          JOINT BN_Tail_04
          {
            OFFSET 21.6394 -9.91821e-005 0
            CHANNELS 6 Xposition Yposition Zposition Zrotation Xrotation Yrotation
            End Site
            {
              OFFSET 0 0 0
            }
          }
        }
      }
    }
    JOINT Bip01_Spine
    {
      OFFSET 22.1878 -0.659386 3.048e-005
      CHANNELS 6 Xposition Yposition Zposition Zrotation Xrotation Yrotation
      JOINT Bip01_R_Thigh
      {
        OFFSET -22.1873 0.677109 -17.1024
        CHANNELS 6 Xposition Yposition Zposition Zrotation Xrotation Yrotation
        JOINT Bip01_R_Calf
        {
          OFFSET 34.2647 0 0
          CHANNELS 6 Xposition Yposition Zposition Zrotation Xrotation Yrotation
          JOINT Bip01_R_HorseLink
          {
            OFFSET 20.4429 0 0
            CHANNELS 6 Xposition Yposition Zposition Zrotation Xrotation Yrotation
            JOINT Bip01_R_Foot
            {
              OFFSET 16.5673 0 0
              CHANNELS 6 Xposition Yposition Zposition Zrotation Xrotation Yrotation
              JOINT Bip01_R_Toe0
              {
                OFFSET 9.18784 6.94841 0
                CHANNELS 6 Xposition Yposition Zposition Zrotation Xrotation Yrotation
                JOINT Bip01_R_Toe0Nub
                {
                  OFFSET 1.01907 0 0
                  CHANNELS 6 Xposition Yposition Zposition Zrotation Xrotation Yrotation
                  End Site
                  {
                    OFFSET 0 0 0
                  }
                }
              }
            }
          }
        }
      }
      JOINT Bip01_L_Thigh
      {
        OFFSET -22.1873 0.67701 17.1024
        CHANNELS 6 Xposition Yposition Zposition Zrotation Xrotation Yrotation
        JOINT Bip01_L_Calf
        {
          OFFSET 34.2647 0 0
          CHANNELS 6 Xposition Yposition Zposition Zrotation Xrotation Yrotation
          JOINT Bip01_L_HorseLink
          {
            OFFSET 20.4429 0 0
            CHANNELS 6 Xposition Yposition Zposition Zrotation Xrotation Yrotation
            JOINT Bip01_L_Foot
            {
              OFFSET 16.5673 0 0
              CHANNELS 6 Xposition Yposition Zposition Zrotation Xrotation Yrotation
              JOINT Bip01_L_Toe0
              {
                OFFSET 9.18784 6.9484 1.14441e-005
                CHANNELS 6 Xposition Yposition Zposition Zrotation Xrotation Yrotation
                JOINT Bip01_L_Toe0Nub
                {
                  OFFSET 1.01907 0 0
                  CHANNELS 6 Xposition Yposition Zposition Zrotation Xrotation Yrotation
                  End Site
                  {
                    OFFSET 0 0 0
                  }
                }
              }
            }
          }
        }
      }
      JOINT Bip01_Spine1
      {
        OFFSET 39.3372 -0.0249863 0
        CHANNELS 6 Xposition Yposition Zposition Zrotation Xrotation Yrotation
        JOINT Bip01_Neck
        {
          OFFSET 34.2837 -15.5934 -4.318e-005
          CHANNELS 6 Xposition Yposition Zposition Zrotation Xrotation Yrotation
          JOINT Bip01_R_Clavicle
          {
            OFFSET -17.9452 -11.3131 -6.19287
            CHANNELS 6 Xposition Yposition Zposition Zrotation Xrotation Yrotation
            JOINT Bip01_R_UpperArm
            {
              OFFSET 17.4439 1.52588e-005 -2.28882e-005
              CHANNELS 6 Xposition Yposition Zposition Zrotation Xrotation Yrotation
              JOINT Bip01_R_Forearm
              {
                OFFSET 30.6251 1.14441e-005 0
                CHANNELS 6 Xposition Yposition Zposition Zrotation Xrotation Yrotation
                JOINT Bip01_R_Hand
                {
                  OFFSET 31.2039 0 0
                  CHANNELS 6 Xposition Yposition Zposition Zrotation Xrotation Yrotation
                  JOINT Bip01_R_Finger0
                  {
                    OFFSET 22.1039 0.255862 -0.37902
                    CHANNELS 6 Xposition Yposition Zposition Zrotation Xrotation Yrotation
                    JOINT Bip01_R_Finger0Nub
                    {
                      OFFSET 12.0552 0 0
                      CHANNELS 6 Xposition Yposition Zposition Zrotation Xrotation Yrotation
                      End Site
                      {
                        OFFSET 0 0 0
                      }
                    }
                  }
                }
              }
            }
          }
          JOINT Bip01_L_Clavicle
          {
            OFFSET -17.9452 -11.3132 6.19281
            CHANNELS 6 Xposition Yposition Zposition Zrotation Xrotation Yrotation
            JOINT Bip01_L_UpperArm
            {
              OFFSET 17.444 0 1.14441e-005
              CHANNELS 6 Xposition Yposition Zposition Zrotation Xrotation Yrotation
              JOINT Bip01_L_Forearm
              {
                OFFSET 30.6251 0 0
                CHANNELS 6 Xposition Yposition Zposition Zrotation Xrotation Yrotation
                JOINT Bip01_L_Hand
                {
                  OFFSET 31.204 0 0
                  CHANNELS 6 Xposition Yposition Zposition Zrotation Xrotation Yrotation
                  JOINT Bip01_L_Finger0
                  {
                    OFFSET 22.1039 0.255856 0.379024
                    CHANNELS 6 Xposition Yposition Zposition Zrotation Xrotation Yrotation
                    JOINT Bip01_L_Finger0Nub
                    {
                      OFFSET 12.0552 0 0
                      CHANNELS 6 Xposition Yposition Zposition Zrotation Xrotation Yrotation
                      End Site
                      {
                        OFFSET 0 0 0
                      }
                    }
                  }
                }
              }
            }
          }
          JOINT Bip01_Neck1
          {
            OFFSET 14.9359 -0.0106278 0
            CHANNELS 6 Xposition Yposition Zposition Zrotation Xrotation Yrotation
            JOINT Bip01_Head
            {
              OFFSET 14.3578 0.505501 0
              CHANNELS 6 Xposition Yposition Zposition Zrotation Xrotation Yrotation
              JOINT BN_Ear_L_01
              {
                OFFSET 3.76994 -2.35629 12.3444
                CHANNELS 6 Xposition Yposition Zposition Zrotation Xrotation Yrotation
                End Site
                {
                  OFFSET 0 0 0
                }
              }
              JOINT BN_Ear_R_01
              {
                OFFSET 3.76995 -2.35622 -12.3442
                CHANNELS 6 Xposition Yposition Zposition Zrotation Xrotation Yrotation
                End Site
                {
                  OFFSET 0 0 0
                }
              }
              JOINT BN_Mouth_01
              {
                OFFSET 11.8395 10.8645 1.27e-005
                CHANNELS 6 Xposition Yposition Zposition Zrotation Xrotation Yrotation
                JOINT BN_Tongue_01
                {
                  OFFSET 9.73752 3.21674 1.016e-005
                  CHANNELS 6 Xposition Yposition Zposition Zrotation Xrotation Yrotation
                  JOINT BN_Tongue_02
                  {
                    OFFSET 9.04304 0.053505 0
                    CHANNELS 6 Xposition Yposition Zposition Zrotation Xrotation Yrotation
                    End Site
                    {
                      OFFSET 0 0 0
                    }
                  }
                }
                JOINT BN_Beard_01
                {
                  OFFSET 6.93466 -0.751793 0
                  CHANNELS 6 Xposition Yposition Zposition Zrotation Xrotation Yrotation
                  JOINT BN_Beard_02
                  {
                    OFFSET 13.0965 1.52588e-005 0
                    CHANNELS 6 Xposition Yposition Zposition Zrotation Xrotation Yrotation
                    End Site
                    {
                      OFFSET 0 0 0
                    }
                  }
                }
              }
              JOINT Bip01_HeadNub
              {
                OFFSET 25.6158 0 0
                CHANNELS 6 Xposition Yposition Zposition Zrotation Xrotation Yrotation
                End Site
                {
                  OFFSET 0 0 0
                }
              }
            }
          }
        }
      }
    }
  }
}
MOTION
Frames:	4
Frame Time:	0.0333333
-53.1926 21.8654 -0.761716 -1.50889 -43.2579 88.5439 -7.62939e-006 0 -1.42109e-014 -100.718 23.0441 -89.7842 -18.6385 -9.59101 -1.17429e-007 -56.8424 2.13049 -169.703 20.9743 -7.62949e-006 -0.0014354 5.37475 4.43648 22.7641 20.3015 -1.08557e-010 -0.00105858 -2.73389 -3.35862 22.2666 21.6394 7.63172e-006 -0.0010004 -12.2888 -9.44789 -5.68276 20.6726 8.08947 -0.0363146 21.6693 -1.4572 -4.21924 -23.3932 0.550435 -15.3764 -97.0373 -24.461 -136.263 34.2647 3.8147e-006 -5.22249e-013 -28.6797 -3.40002e-006 -9.89873e-007 20.4429 -2.4869e-013 3.8147e-006 90.4775 4.76848e-006 -1.04947e-006 16.5673 0 -3.8147e-006 -62.5882 -5.93143 15.2944 9.18783 6.94842 -1.24193e-006 89.1577 -2.93583 0.347691 1.01909 7.10542e-015 1.90735e-006 -1.30537e-007 -3.87101e-008 -2.67575e-007 -20.874 -0.322104 18.7244 -97.3101 -11.0554 -154.37 34.2647 -3.8147e-006 -1.90735e-006 -48.5286 -1.66237e-005 -1.84188e-005 20.4429 7.6294e-006 -3.8147e-006 60.3371 1.0036e-005 -9.0884e-006 16.5673 -3.8147e-006 3.8147e-006 -19.9385 -8.21783 32.7113 9.18783 6.94841 6.12184e-006 87.8359 -10.6276 0.864172 1.01907 -1.19209e-007 7.10543e-015 -179.96 -2.9025e-005 4.33976e-005 39.3429 -0.0246506 0.00609357 13.8631 -14.5529 -3.16354 34.2801 -15.5931 -3.3713e-005 26.0899 -2.42155 16.572 -18.2841 -3.02874 -12.0441 157.571 -17.8517 110.296 17.444 -7.10543e-015 -1.77636e-014 67.8973 68.0742 -148.553 30.6251 7.15257e-007 -1.77636e-014 -98.0978 -2.63623e-006 7.43943e-006 31.2039 -3.55272e-015 -2.84217e-014 -88.4428 67.9284 -103.318 22.1039 0.255849 -0.379024 1.60549 -3.37232 -3.41364 12.0552 -1.90736e-006 -2.84217e-014 179.96 -1.58297e-005 1.77487e-005 -21.8147 -3.55217 -0.183751 137.739 47.1052 -82.4819 17.444 2.84217e-014 -3.8147e-006 47.3392 -49.0902 57.4146 30.6251 -5.72206e-006 5.72204e-006 -87.651 -1.03076e-005 -1.82349e-005 31.204 -3.81471e-006 5.72204e-006 -150.12 -84.3717 79.3359 22.1039 0.255851 0.37902 -9.923 -2.56355 -2.43965 12.0552 -5.72206e-006 7.62938e-006 -9.89591e-006 1.02917e-005 8.14097e-006 14.9375 -0.010376 -0.000136972 5.0094 3.04574 2.0902 14.3578 0.505471 2.63623e-009 -30.3986 0.622368 -2.33073 3.76991 -2.35624 12.3444 -162.991 16.0628 -93.3547 3.76994 -2.35619 -12.3441 12.001 30.1618 98.0548 11.8396 10.8645 -5.95732e-007 -171.717 2.79103 179.66 9.73752 3.21675 -2.03997e-008 -7.54884 -2.65846e-005 -2.88475e-006 5.29534 0.766261 -0.238397 -10.0106 -4.22801e-007 1.22314e-007 6.93464 -0.751801 -9.48907e-007 -72.0919 -4.74803 76.9103 13.0965 7.6294e-006 -1.19209e-007 0.543625 -3.42571 13.1316 25.6158 2.28882e-005 -4.76837e-007 -6.60127e-008 2.49605e-008 2.39507e-008 
-53.1923 21.8654 -0.761716 -1.49966 -43.2582 88.5581 -7.62939e-006 1.77636e-015 7.10543e-015 -100.686 23.0494 -89.7778 -18.6385 -9.59101 -1.17279e-007 -56.8425 2.1305 -169.707 20.9743 -7.62949e-006 -0.0014354 5.37526 4.43587 22.751 20.3015 -1.0877e-010 -0.00105858 -2.73389 -3.35864 22.2666 21.6394 7.63171e-006 -0.0010004 -12.2888 -9.44784 -5.68275 20.6719 8.0911 -0.0339295 21.6902 -1.47197 -4.21865 -23.3929 0.561112 -15.3789 -96.9244 -24.3392 -136.222 34.2647 3.8147e-006 -5.29799e-013 -28.2215 -2.80147e-006 -1.0179e-006 20.4429 -2.41585e-013 3.8147e-006 90.2417 5.76648e-006 -3.63668e-007 16.5673 0 -3.8147e-006 -62.6333 -5.92796 15.3458 9.18783 6.94842 -1.24391e-006 89.1533 -2.9794 0.350826 1.01909 6.39488e-014 1.90735e-006 -1.30537e-007 -3.87101e-008 -2.67575e-007 -20.8745 -0.320375 18.7218 -97.4462 -11.0749 -154.432 34.2647 -3.8147e-006 -1.90735e-006 -48.8591 -1.7028e-005 -1.80518e-005 20.4429 7.6294e-006 -3.8147e-006 60.554 1.83034e-005 -4.45241e-006 16.5673 -3.8147e-006 3.8147e-006 -19.9399 -8.21165 32.6333 9.18783 6.94841 6.25532e-006 87.8515 -10.5239 0.853071 1.01907 -1.19209e-007 -1.06581e-014 -179.96 -2.9025e-005 4.33976e-005 39.3429 -0.0246506 0.00608331 13.8446 -14.5346 -3.15692 34.2801 -15.5931 -3.37133e-005 26.1528 -2.4191 16.6617 -18.2687 -3.00624 -12.0729 157.526 -17.8595 110.389 17.444 0 -3.55271e-015 68.0051 68.0098 -148.734 30.6251 7.15257e-007 -8.88178e-015 -98.1386 -1.15686e-005 6.15449e-006 31.2039 0 -4.9738e-014 -88.447 67.902 -103.086 22.1039 0.255849 -0.379024 1.62764 -3.40062 -3.36318 12.0552 -1.90736e-006 -2.75335e-014 179.96 -1.58298e-005 1.77488e-005 -21.818 -3.52964 -0.218052 137.624 47.0308 -82.4119 17.444 2.84217e-014 -3.8147e-006 47.356 -49.0489 57.4764 30.6251 -5.72206e-006 5.72204e-006 -87.7328 -3.24964e-006 -1.85218e-005 31.204 -3.81471e-006 5.72204e-006 -150.68 -84.3764 78.7957 22.1039 0.255851 0.37902 -9.92346 -2.564 -2.45831 12.0552 -5.72206e-006 7.62938e-006 -9.89577e-006 1.02917e-005 8.14084e-006 14.9375 -0.010376 -0.000136972 5.05765 3.03013 1.97194 14.3578 0.505471 2.67033e-009 -30.43 0.72436 -2.22524 3.76991 -2.35624 12.3444 -162.93 15.7037 -93.8328 3.76994 -2.35619 -12.3441 12.0619 30.0672 98.0941 11.8396 10.8645 -5.98677e-007 -171.98 4.6253 178.941 9.73752 3.21675 -3.42975e-008 -7.54884 -0.000146126 -1.87304e-005 5.29676 0.769242 -0.239521 -10.0125 -4.67464e-007 7.74212e-008 6.93464 -0.751801 -9.45659e-007 -72.1407 -4.98605 78.7165 13.0965 7.6294e-006 -1.19209e-007 0.543314 -3.42516 13.2477 25.6158 2.28882e-005 -4.76837e-007 -6.60127e-008 2.49605e-008 2.39507e-008 
-53.1919 21.8654 -0.761716 -1.49091 -43.2584 88.5715 -7.62939e-006 1.77636e-015 0 -100.655 23.0545 -89.7711 -18.6385 -9.59101 -1.17128e-007 -56.8425 2.13051 -169.711 20.9743 -7.62949e-006 -0.0014354 5.37575 4.43526 22.7387 20.3015 -1.08997e-010 -0.00105858 -2.73389 -3.3587 22.2666 21.6394 7.6317e-006 -0.0010004 -12.2889 -9.44783 -5.68275 20.6712 8.09269 -0.0315952 21.7108 -1.4867 -4.21804 -23.3927 0.571537 -15.3813 -96.8142 -24.2201 -136.182 34.2647 3.8147e-006 -5.22915e-013 -27.7741 -2.38114e-006 -6.40322e-007 20.4429 -2.06057e-013 3.8147e-006 90.0115 4.77872e-006 3.64662e-007 16.5673 0 -3.8147e-006 -62.6714 -5.92404 15.3901 9.18783 6.94842 -1.24463e-006 89.149 -3.02199 0.353882 1.01909 2.13163e-014 1.90735e-006 -1.30537e-007 -3.87101e-008 -2.67575e-007 -20.8749 -0.31868 18.7192 -97.5812 -11.0943 -154.492 34.2647 -3.8147e-006 -1.90735e-006 -49.1842 -1.7498e-005 -1.76361e-005 20.4429 7.6294e-006 -3.8147e-006 60.7663 1.03152e-005 -8.99327e-006 16.5673 -3.8147e-006 3.8147e-006 -19.9412 -8.20562 32.5572 9.18783 6.94841 6.39183e-006 87.8668 -10.4227 0.842208 1.01907 -1.19209e-007 3.55271e-015 -179.96 -2.9025e-005 4.33976e-005 39.3429 -0.0246506 0.00607325 13.8254 -14.5146 -3.14945 34.2801 -15.5931 -3.37137e-005 26.2125 -2.4223 16.7492 -18.2537 -2.98428 -12.1011 157.482 -17.867 110.48 17.444 -7.10543e-015 -7.10543e-015 68.108 67.9469 -148.907 30.6251 7.15257e-007 -2.30926e-014 -98.1785 -1.15634e-005 6.14185e-006 31.2039 0 -3.55271e-014 -88.4496 67.8757 -102.86 22.1039 0.255849 -0.379024 1.64933 -3.42824 -3.31389 12.0552 -1.90736e-006 -1.5099e-014 179.96 -1.58298e-005 1.77488e-005 -21.8212 -3.50761 -0.251553 137.512 46.9578 -82.3438 17.444 7.10543e-015 -3.8147e-006 47.3723 -49.0086 57.5367 30.6251 -5.72206e-006 5.72204e-006 -87.8119 -1.28667e-006 -1.85948e-005 31.204 -3.81471e-006 5.72204e-006 -151.231 -84.3801 78.265 22.1039 0.255851 0.37902 -9.92391 -2.56444 -2.47654 12.0552 -5.72206e-006 7.62938e-006 1.21883e-007 1.02917e-005 -1.87683e-006 14.9375 -0.010376 -0.000136972 5.10056 3.01225 1.85556 14.3578 0.505471 2.70237e-009 -30.4478 0.830344 -2.11336 3.76991 -2.35624 12.3444 -162.912 15.4049 -94.0596 3.76994 -2.35619 -12.3441 12.1214 29.9749 98.1325 11.8396 10.8645 -6.01883e-007 -172.241 6.19484 178.268 9.73752 3.21675 -4.73524e-008 -7.54884 -5.61268e-007 5.21267e-008 5.2981 0.772474 -0.240714 -10.0143 -5.07865e-007 3.54242e-008 6.93464 -0.751801 -9.42608e-007 -72.2256 -5.26617 80.2556 13.0965 7.6294e-006 -1.19209e-007 0.543009 -3.42463 13.3611 25.6158 2.28882e-005 -4.76837e-007 -6.60127e-008 2.49605e-008 2.39507e-008 
-53.1916 21.8654 -0.761716 -1.48232 -43.2587 88.5847 -7.62939e-006 -1.77636e-015 0 -100.624 23.0598 -89.7643 -18.6385 -9.59101 -1.16971e-007 -56.8426 2.13051 -169.715 20.9743 -7.62949e-006 -0.0014354 5.37546 4.43839 22.7268 20.3015 -1.09196e-010 -0.00105858 -2.73389 -3.35862 22.2666 21.6394 7.63169e-006 -0.0010004 -12.2851 -9.448 -5.68244 20.6706 8.09431 -0.0292308 21.7317 -1.50163 -4.21743 -23.3924 0.582109 -15.3838 -96.7036 -24.1 -136.143 34.2647 3.8147e-006 -5.34683e-013 -27.3227 -1.68404e-006 -6.74994e-007 20.4429 -1.7053e-013 3.8147e-006 89.778 5.77462e-006 1.15058e-006 16.5673 0 -3.8147e-006 -62.7097 -5.92007 15.4346 9.18783 6.94842 -1.24539e-006 89.1446 -3.06513 0.356977 1.01909 3.55271e-014 1.90735e-006 -1.30537e-007 -3.87101e-008 -2.67575e-007 -20.8753 -0.316971 18.7167 -97.7207 -11.1144 -154.554 34.2647 -3.8147e-006 -1.90735e-006 -49.5183 -1.6909e-005 -1.81335e-005 20.4429 7.6294e-006 -3.8147e-006 60.9861 9.52561e-006 -9.46257e-006 16.5673 -3.8147e-006 3.8147e-006 -19.9429 -8.19901 32.4717 9.18783 6.94841 6.54014e-006 87.8823 -10.32 0.831165 1.01907 -1.19209e-007 -2.13163e-014 -179.96 -2.9025e-005 4.33976e-005 39.3429 -0.0246506 0.00606309 13.8054 -14.4942 -3.14205 34.2801 -15.5931 -3.3714e-005 26.2729 -2.42572 16.838 -18.2385 -2.96201 -12.1296 157.439 -17.8764 110.572 17.444 0 1.77636e-014 68.2114 67.883 -149.082 30.6251 7.15257e-007 -1.95399e-014 -98.2193 -2.62297e-006 7.41944e-006 31.2039 0 -2.84217e-014 -88.452 67.8491 -102.632 22.1039 0.255849 -0.379024 1.67132 -3.45621 -3.26389 12.0552 -1.90736e-006 -4.44089e-015 179.96 -1.58298e-005 1.77488e-005 -21.8242 -3.4865 -0.285788 137.404 46.8819 -82.2759 17.444 2.13163e-014 -3.8147e-006 47.3888 -48.9677 57.5978 30.6251 -5.72206e-006 5.72204e-006 -87.8911 -1.02368e-005 -1.82599e-005 31.204 -3.81471e-006 5.72204e-006 -151.789 -84.3834 77.7266 22.1039 0.255851 0.37902 -9.92426 -2.56496 -2.49407 12.0552 -5.72206e-006 7.62938e-006 1.22008e-007 1.02917e-005 -1.87696e-006 14.9375 -0.010376 -0.000136972 5.13457 2.99271 1.7328 14.3578 0.505471 2.73668e-009 -30.4654 0.93805 -1.99952 3.76991 -2.35624 12.3444 -162.898 15.1046 -94.2778 3.76994 -2.35619 -12.3441 12.1818 29.8813 98.1716 11.8396 10.8645 -6.05e-007 -172.518 7.48201 177.638 9.73752 3.21675 -5.96018e-008 -7.54884 -5.52051e-007 2.3698e-008 5.29946 0.775753 -0.24192 -10.0162 -5.45758e-007 -3.4997e-009 6.93464 -0.751801 -9.39745e-007 -72.3506 -5.60007 81.5066 13.0965 7.6294e-006 -1.19209e-007 0.542699 -3.42408 13.476 25.6158 2.28882e-005 -4.76837e-007 -6.60127e-008 2.49605e-008 2.39507e-008 
